# Blender v2.79 (sub 0) OBJ File: 'LowPolytree.blend'
# www.blender.org
mtllib LowPolytree.mtl
o Cylinder
v -3.333008 6.779157 0.751888
v -1.009739 7.170473 -1.447599
v 0.396696 9.008845 6.002163
v -2.481068 9.832612 -0.484745
v -0.377211 5.250573 2.947962
v 1.642237 5.721868 3.183816
v -0.148708 6.628507 5.470496
v 3.300330 6.774802 3.167944
v 1.727405 5.825007 0.742639
v -2.822749 6.048335 2.793097
v 3.681665 8.419540 3.368948
v 3.649299 9.197300 1.028483
v 2.176715 8.317332 5.293060
v -2.470417 8.256605 5.128366
v -4.159499 8.199821 1.861845
v 2.592196 10.024569 4.155401
v -2.243358 9.918995 4.852857
v -3.422055 10.028519 1.964834
v 0.682566 11.232610 3.339056
v 1.355539 14.275964 0.541553
v 4.475430 9.588902 -0.626394
v 5.212873 11.417599 -0.523404
v 3.300816 11.090787 2.601273
v -0.564649 10.534137 -4.100116
v -2.628290 11.197879 -2.030508
v 3.523793 11.360814 -3.789925
v 1.356955 10.852033 -4.513144
v 2.938030 12.711701 2.457240
v -1.168160 12.658012 2.145815
v -2.246955 12.842618 -1.829503
v 1.202083 12.988914 -4.132055
v 4.461430 12.929147 -1.564526
v 3.128145 13.893104 -0.491547
v -0.610973 14.180210 -0.609867
v 1.760994 13.957788 -2.517411
v -1.210705 6.850013 -2.983593
v 1.305663 7.435715 -5.737323
v 3.952218 7.388638 -3.687058
v -1.015600 9.400646 -5.148672
v 3.996552 9.857741 -2.691735
v 3.139389 6.849288 -1.403716
v 1.581576 6.146242 -3.893439
v 3.962580 8.624581 -4.703464
v -1.794668 7.957573 -4.166131
v 1.817333 9.475674 -5.958849
v 0.430824 10.072198 -5.390239
v 3.282049 10.402057 -3.678105
v 3.937058 9.205483 -1.480344
v -1.602395 9.791539 -2.863709
v 2.534043 7.285627 -0.480761
v 2.986426 8.618034 -0.204458
v -1.596183 9.037456 -1.462585
v 3.295672 10.118222 2.174417
v -2.415706 10.707421 0.853013
v -1.125196 11.356803 2.549958
v 0.597887 6.241838 -0.476273
v 0.681606 6.017126 -1.154869
v 1.116681 6.204226 -1.029865
v 1.195734 6.366720 -0.700525
v 0.294607 -0.106546 -0.399996
v 0.434189 -0.106725 0.207083
v 0.036852 -0.106742 0.468083
v 0.220327 4.160893 0.332743
v -0.455136 -0.106633 0.199105
v -0.332654 4.154274 0.229960
v -0.288285 -0.106747 -0.377187
v -0.356805 4.128674 -0.183162
v -0.664198 5.971192 -0.405156
v -1.429401 6.108755 -0.066454
v -1.472295 6.209154 -0.381436
v -2.235921 8.857544 -0.688609
v 0.377365 4.178123 -0.005340
v -0.084522 4.901521 -0.321634
v 0.005784 4.834587 0.008877
v 0.180824 4.175777 -0.347878
v -0.084944 4.239571 -0.389041
v -0.208238 4.475947 0.355815
v 0.472173 4.842560 0.045861
v -0.110633 4.861315 0.211338
v 0.013404 4.826747 0.002145
v 0.236704 4.997812 0.021827
v 0.236449 4.997729 0.021865
v -2.193524 8.857544 -0.690272
v -2.273336 8.816177 -0.584367
v -2.284582 8.857544 -0.576836
v -2.191953 8.842772 -0.689915
v -2.215342 8.692334 -0.662797
v -2.196413 8.731777 -0.686597
v 1.287799 6.847290 -0.818199
v 1.253469 6.784262 -0.765073
v 1.222892 6.760327 -0.757206
v 0.981315 6.431046 -0.523313
v 0.953529 6.406027 -0.512159
v 0.484373 6.512249 -0.860552
v 0.488142 6.604990 -0.955975
v 0.532197 6.668075 -1.023347
v -0.592571 5.896039 -0.164108
v -0.553259 5.837285 -0.106126
v -1.224324 6.052166 0.106294
v -0.800206 5.849200 0.201163
v -0.991739 5.927623 0.210737
v -0.745393 6.174041 -0.398554
v -0.683026 6.036929 -0.273345
v -0.894342 6.328832 -0.482063
v -1.716104 6.768868 -0.426094
v -1.620548 6.820924 -0.561446
v -1.353993 6.170744 0.053785
v -1.541857 6.375319 -0.063204
v -1.161950 6.585582 -0.605446
v -1.507485 6.807981 -0.628560
v 0.624631 6.330500 -0.505012
v 0.659915 6.341048 -0.509877
v -0.544695 5.826499 -0.084941
v 0.138279 5.754643 0.532375
v 0.308826 5.782791 0.448640
v 0.112673 5.725837 0.671809
v 0.682764 5.814784 0.418450
v 0.815351 5.797673 0.554601
v 0.319057 5.666285 1.053638
v 0.104627 5.690432 0.851635
v -0.561114 5.800502 0.043312
v -0.553138 5.804636 0.024857
v 0.788787 5.723462 0.928036
v 0.866654 5.779572 0.666541
v 0.350578 5.795648 0.397347
v 0.406814 5.802271 0.383454
v 0.406738 5.802262 0.383474
v 0.749583 5.707182 0.997913
v 0.429215 5.667781 1.085665
v -0.532434 5.816778 -0.030341
v -0.799400 5.848955 0.201108
v 1.340251 6.802036 -0.910634
v 1.285854 6.682705 -1.093094
v 0.563294 6.638003 -1.091290
v 0.658795 6.601325 -1.254881
v 0.760714 6.573945 -1.305872
v 1.201805 6.646578 -1.218613
v 1.283054 6.678322 -1.112814
v 0.776764 6.574117 -1.314766
v 0.936706 6.591709 -1.325854
vn -0.2970 -0.9415 -0.1594
vn 0.0685 -0.9794 -0.1898
vn -0.8544 -0.5188 0.0278
vn -0.6530 -0.2110 -0.7273
vn 0.7690 -0.2502 0.5882
vn -0.2503 -0.1561 0.9555
vn 0.8983 -0.2269 -0.3763
vn 0.1956 0.7423 0.6409
vn -0.7523 0.5676 -0.3344
vn -0.5315 0.8100 0.2477
vn -0.1462 0.8695 0.4718
vn -0.0138 0.7682 0.6400
vn -0.8584 0.3664 -0.3590
vn -0.8696 0.3300 0.3674
vn -0.3330 0.1983 0.9219
vn 0.4702 0.4073 0.7830
vn 0.7627 0.2197 0.6082
vn 0.8492 0.4190 0.3214
vn -0.7761 -0.0976 -0.6230
vn -0.7935 0.0137 -0.6084
vn -0.8729 0.1935 0.4480
vn -0.8362 -0.3299 0.4381
vn -0.5052 -0.5877 0.6320
vn 0.2651 -0.2676 0.9263
vn 0.4702 -0.5773 0.6676
vn 0.9591 0.2722 0.0772
vn 0.9729 -0.2152 -0.0850
vn 0.9089 -0.3418 -0.2387
vn -0.2996 -0.8256 0.4781
vn 0.7482 -0.6172 -0.2435
vn 0.5359 -0.8441 -0.0170
vn 0.2308 -0.9724 -0.0330
vn 0.1497 -0.8734 0.4635
vn 0.4315 -0.6703 0.6037
vn 0.8639 -0.3678 0.3442
vn 0.8373 -0.2498 0.4863
vn -0.9972 -0.0301 0.0684
vn 0.8873 -0.0554 -0.4578
vn 0.1655 0.9829 -0.0803
vn 0.4219 0.8695 -0.2569
vn 0.4603 0.6818 -0.5685
vn 0.0113 0.9947 -0.1020
vn -0.2630 0.8647 -0.4279
vn -0.3373 0.8254 -0.4528
vn -0.7115 0.6660 0.2240
vn -0.2868 0.8619 0.4181
vn -0.0599 0.7484 0.6606
vn 0.3942 0.8440 0.3636
vn 0.7061 0.6404 0.3021
vn 0.8807 0.1227 -0.4575
vn 0.5063 0.5899 -0.6290
vn -0.2320 0.1545 -0.9604
vn -0.5268 0.3692 -0.7656
vn -0.9713 0.2120 0.1077
vn -0.8824 0.3936 0.2577
vn 0.8192 0.2300 0.5253
vn 0.7459 0.5873 0.3143
vn 0.2710 0.1880 -0.9441
vn -0.6483 0.2387 -0.7230
vn 0.9018 -0.3493 -0.2546
vn 0.1208 -0.9725 0.1991
vn -0.2149 -0.9722 0.0925
vn 0.9183 -0.3026 0.2554
vn -0.9382 -0.2932 0.1839
vn -0.4708 -0.3086 -0.8265
vn 0.5050 -0.5507 -0.6646
vn 0.8277 -0.2641 0.4951
vn -0.9371 -0.2949 0.1866
vn -0.2739 -0.0357 -0.9611
vn -0.7628 0.5758 -0.2944
vn 0.4103 0.7222 -0.5569
vn -0.4214 0.7005 -0.5760
vn 0.8110 0.4926 -0.3156
vn 0.5723 0.5630 -0.5962
vn -0.2722 0.2523 -0.9286
vn -0.9111 0.2979 -0.2849
vn 0.4329 -0.2039 -0.8781
vn 0.9982 -0.0572 0.0182
vn 1.0000 -0.0016 0.0082
vn 0.4220 -0.7121 -0.5611
vn -0.3807 -0.7836 -0.4910
vn -0.3660 -0.7625 -0.5334
vn 0.4667 -0.8834 -0.0425
vn 0.1610 -0.8473 0.5061
vn -0.8463 -0.4366 -0.3051
vn -0.2436 0.8382 -0.4880
vn 0.2756 0.1461 0.9501
vn -0.0689 0.5863 0.8072
vn 0.8836 -0.1921 0.4271
vn -0.5112 0.8573 0.0607
vn 0.2298 -0.3922 0.8907
vn 0.6905 -0.3641 0.6250
vn 0.4596 0.8644 0.2041
vn 0.4056 -0.7081 -0.5780
vn 0.5610 -0.8234 0.0852
vn 0.7104 -0.2556 -0.6557
vn 0.3515 -0.1954 -0.9156
vn -0.7222 -0.1237 -0.6805
vn -0.8137 0.1478 0.5622
vn 0.7963 -0.5480 -0.2560
vn 0.5513 -0.8339 0.0268
vn 0.0334 0.7291 -0.6835
vn -0.9963 0.0733 0.0439
vn -0.3590 -0.9031 0.2354
vn -0.7954 -0.5352 -0.2845
vn -0.3705 0.2643 0.8904
vn -0.4556 0.4108 -0.7898
vn 0.9388 -0.3396 -0.0578
vn -0.0370 -0.2699 -0.9622
vn 0.1498 0.1308 0.9800
vn 0.9746 0.0018 -0.2241
vn 0.5490 0.0029 0.8358
vn -0.9605 -0.0028 -0.2781
vn 0.1144 0.1597 0.9805
vn -0.7237 -0.3128 0.6151
vn 0.9265 0.3726 -0.0535
vn 0.7559 -0.4934 -0.4303
vn 0.4217 -0.4577 -0.7827
vn 0.7190 0.1074 -0.6867
vn -0.6880 -0.1153 0.7165
vn -0.7408 0.4626 -0.4870
vn -0.2502 -0.4048 0.8795
vn -0.2720 0.4418 -0.8549
vn 0.4137 -0.4235 -0.8059
vn 0.7883 -0.3635 -0.4964
vn -0.5395 0.0003 0.8420
vn 0.8669 0.0291 -0.4976
vn 0.9058 0.0330 0.4224
vn 0.0745 0.0284 0.9968
vn -0.9980 0.0283 0.0566
vn 0.0220 0.0044 -0.9997
vn -0.6103 0.0264 -0.7917
vn 0.0000 -1.0000 -0.0001
vn -0.8781 -0.4775 0.0318
vn 0.6817 0.2947 -0.6697
vn -0.6951 -0.3528 -0.6264
vn -0.3539 0.4344 0.8283
vn 0.2760 -0.4576 0.8452
vn 0.9310 -0.3623 -0.0447
vn -0.4766 -0.1664 -0.8632
vn 0.0425 -0.4107 -0.9108
vn -0.8290 0.4590 0.3195
vn 0.2868 -0.4597 0.8405
vn -0.9689 0.2474 0.0054
vn 0.8517 -0.1600 0.4990
vn 0.0143 0.3474 0.9376
vn 0.7974 0.4529 0.3987
vn 0.8741 0.4688 -0.1275
vn -0.2639 0.4413 -0.8577
vn -0.4945 -0.3452 -0.7977
vn -0.0414 -0.7157 -0.6972
vn 0.4525 0.3212 0.8319
vn 0.2003 0.3372 -0.9199
vn 0.8623 -0.4095 0.2979
vn -0.4183 -0.7089 -0.5679
vn -0.9029 -0.1739 -0.3931
vn 0.8604 -0.0404 0.5080
vn -0.7518 0.4307 0.4993
vn 0.0106 -0.0870 -0.9962
vn -0.9184 -0.3957 0.0059
vn -0.5832 -0.1958 -0.7884
vn 0.0000 1.0000 0.0000
vn 0.0430 0.2963 0.9541
vn -0.8439 0.0761 -0.5311
vn 0.1829 -0.8443 -0.5037
vn -0.0392 -0.0283 -0.9988
vn 0.8990 -0.0953 -0.4274
vn 0.4614 0.1462 -0.8751
vn 0.6472 0.0647 0.7596
vn -0.3787 -0.8973 -0.2266
vn -0.9463 0.3036 -0.1111
vn -0.4753 -0.1680 0.8636
usemtl None
s off
f 5//1 10//1 100//1 131//1 121//1
f 5//2 121//2 114//2 116//2 120//2 119//2 129//2 128//2 123//2 9//2
f 1//3 10//3 15//3
f 2//4 1//4 52//4
f 8//5 11//5 13//5
f 7//6 3//6 14//6
f 50//7 51//7 12//7
f 3//8 16//8 19//8
f 18//9 54//9 4//9
f 18//10 17//10 55//10
f 55//11 17//11 19//11
f 17//12 3//12 19//12
f 15//13 18//13 4//13
f 15//14 17//14 18//14
f 14//15 3//15 17//15
f 13//16 16//16 3//16
f 13//17 11//17 16//17
f 11//18 53//18 16//18
f 52//19 86//19 83//19 85//19 84//19 15//19 4//19
f 52//20 1//20 15//20 84//20 87//20 88//20 86//20
f 15//21 14//21 17//21
f 15//22 10//22 14//22
f 10//23 7//23 14//23
f 3//24 7//24 13//24
f 7//25 8//25 13//25
f 11//26 12//26 53//26
f 11//27 8//27 12//27
f 8//28 50//28 12//28
f 5//29 7//29 10//29
f 8//30 9//30 50//30
f 8//31 6//31 9//31
f 6//32 5//32 9//32
f 5//33 6//33 7//33
f 6//34 8//34 7//34
f 12//35 21//35 22//35
f 12//36 22//36 23//36
f 4//37 54//37 25//37
f 40//38 26//38 22//38
f 33//39 35//39 20//39
f 33//40 32//40 35//40
f 32//41 31//41 35//41
f 35//42 34//42 20//42
f 35//43 31//43 34//43
f 31//44 30//44 34//44
f 30//45 29//45 34//45
f 34//46 29//46 20//46
f 29//47 28//47 20//47
f 20//48 28//48 33//48
f 28//49 32//49 33//49
f 22//50 26//50 32//50
f 26//51 31//51 32//51
f 27//52 24//52 31//52
f 24//53 30//53 31//53
f 25//54 54//54 30//54
f 54//55 29//55 30//55
f 23//56 22//56 28//56
f 22//57 32//57 28//57
f 26//58 27//58 31//58
f 24//59 25//59 30//59
f 21//60 40//60 22//60
f 42//61 41//61 133//61 138//61 137//61 140//61 139//61 136//61
f 42//62 136//62 135//62 134//62 36//62
f 41//63 38//63 48//63
f 36//64 2//64 52//64
f 37//65 44//65 39//65
f 38//66 37//66 43//66
f 48//67 51//67 41//67
f 36//68 52//68 44//68
f 37//69 39//69 45//69
f 39//70 49//70 24//70
f 45//71 27//71 47//71
f 39//72 24//72 46//72
f 43//73 47//73 40//73
f 43//74 45//74 47//74
f 45//75 39//75 46//75
f 44//76 49//76 39//76
f 43//77 37//77 45//77
f 48//78 43//78 40//78
f 48//79 38//79 43//79
f 42//80 37//80 38//80
f 42//81 44//81 37//81
f 42//82 36//82 44//82
f 38//83 41//83 42//83
f 41//84 50//84 89//84 132//84 133//84
f 49//85 4//85 25//85
f 24//86 27//86 46//86
f 19//87 23//87 28//87
f 19//88 28//88 29//88
f 53//89 12//89 23//89
f 54//90 18//90 55//90
f 53//91 23//91 19//91
f 50//92 41//92 51//92
f 16//93 53//93 19//93
f 9//94 93//94 92//94 91//94 90//94 89//94 50//94
f 12//95 51//95 21//95
f 26//96 40//96 47//96
f 26//97 47//97 27//97
f 25//98 24//98 49//98
f 54//99 55//99 29//99
f 21//100 48//100 40//100
f 48//101 21//101 51//101
f 45//102 46//102 27//102
f 44//103 52//103 49//103
f 36//104 134//104 96//104 2//104
f 4//105 49//105 52//105
f 55//106 19//106 29//106
f 79//107 114//107 115//107
f 58//108 138//108 133//108 132//108 59//108
f 57//109 139//109 140//109
f 59//110 90//110 91//110
f 72//111 61//111 60//111
f 61//112 63//112 62//112
f 67//113 66//113 64//113
f 77//114 131//114 100//114 101//114
f 65//115 107//115 108//115 69//115
f 68//116 102//116 103//116
f 75//117 58//117 72//117
f 75//118 57//118 58//118
f 78//119 117//119 118//119
f 77//120 119//120 120//120
f 79//121 115//121 125//121 74//121
f 63//122 129//122 119//122 77//122
f 82//123 127//123 126//123 81//123
f 58//124 57//124 140//124 137//124
f 58//125 137//125 138//125
f 64//126 62//126 77//126 65//126
f 75//127 72//127 60//127
f 61//128 72//128 63//128
f 63//129 77//129 62//129
f 65//130 67//130 64//130
f 60//131 66//131 76//131 75//131
f 67//132 76//132 66//132
f 61//133 62//133 64//133 66//133 60//133
f 69//134 70//134 67//134 65//134
f 68//135 104//135 102//135
f 70//136 105//136 106//136
f 56//137 74//137 82//137
f 80//138 82//138 74//138
f 72//139 58//139 59//139
f 76//140 135//140 136//140 139//140 57//140
f 75//141 76//141 57//141
f 73//142 74//142 56//142
f 63//143 128//143 129//143
f 79//144 77//144 120//144 116//144
f 78//145 72//145 59//145
f 81//146 78//146 92//146 93//146 112//146 56//146 82//146
f 79//147 74//147 130//147 122//147
f 68//148 103//148 97//148 98//148 113//148 130//148 74//148 73//148
f 74//149 125//149 127//149 82//149
f 106//150 110//150 76//150 67//150 70//150
f 98//151 97//151 2//151 96//151 95//151 94//151
f 122//152 121//152 131//152 77//152 79//152
f 126//153 117//153 78//153 81//153
f 124//154 123//154 128//154 63//154 72//154
f 97//155 103//155 102//155 104//155 109//155 110//155 106//155 105//155 108//155 107//155 99//155 1//155 2//155
f 87//156 84//156 85//156 71//156
f 132//157 89//157 90//157 59//157
f 111//158 94//158 95//158 73//158 56//158
f 110//159 109//159 76//159
f 108//160 105//160 70//160 69//160
f 88//161 87//161 71//161
f 85//162 83//162 71//162
f 112//163 111//163 56//163
f 9//2 123//2 124//2 118//2 117//2 126//2 127//2 125//2 115//2 114//2 121//2 122//2 130//2 113//2
f 95//164 96//164 134//164 135//164 76//164 73//164
f 113//165 98//165 94//165 111//165 112//165 93//165 9//165
f 83//166 86//166 88//166 71//166
f 118//167 124//167 72//167 78//167
f 109//168 104//168 68//168 73//168 76//168
f 91//169 92//169 78//169 59//169
f 99//170 101//170 100//170 10//170 1//170
f 116//171 114//171 79//171
f 101//172 99//172 107//172 65//172 77//172
