# Blender v2.79 (sub 0) OBJ File: 'PineTree.blend'
# www.blender.org
mtllib PineTree.mtl
o Cylinder
v 0.000000 2.526667 -1.292586
v -0.000000 3.760338 -0.888951
v 0.830858 2.526667 -0.990178
v 0.571407 3.760338 -0.680976
v 1.272949 2.526667 -0.224455
v 0.875446 3.760338 -0.154365
v 1.119412 2.526667 0.646293
v 0.769854 3.760338 0.444475
v 0.442090 2.526667 1.214634
v 0.304039 3.760338 0.835341
v -0.442091 2.526667 1.214634
v -0.304039 3.760338 0.835340
v -1.119413 2.526667 0.646293
v -0.769854 3.760338 0.444475
v -1.272949 2.526667 -0.224455
v -0.875446 3.760338 -0.154365
v -0.830859 2.526667 -0.990178
v -0.571407 3.760338 -0.680976
v 0.782564 3.760338 -0.932624
v 0.000000 3.760338 -1.217454
v 1.198958 3.760338 -0.211409
v 1.054346 3.760338 0.608727
v 0.416394 3.760338 1.144033
v -0.416394 3.760338 1.144032
v -1.054346 3.760338 0.608727
v -1.198958 3.760338 -0.211409
v -0.782565 3.760338 -0.932624
v 0.543555 4.431831 -0.647783
v 0.000000 4.431831 -0.845621
v 0.832774 4.431831 -0.146840
v 0.732329 4.431831 0.422810
v 0.289219 4.431831 0.794624
v -0.289220 4.431831 0.794624
v -0.732329 4.431831 0.422810
v -0.832774 4.431831 -0.146840
v -0.543555 4.431831 -0.647783
v 0.814763 4.431831 -0.970996
v 0.000000 4.431831 -1.267546
v 1.248289 4.431831 -0.220107
v 1.097727 4.431831 0.633773
v 0.433526 4.431831 1.191103
v -0.433526 4.431831 1.191103
v -1.097727 4.431831 0.633773
v -1.248289 4.431831 -0.220107
v -0.814763 4.431831 -0.970996
v 0.539866 5.236201 -0.643388
v 0.000000 5.236201 -0.839883
v 0.827123 5.236201 -0.145844
v 0.727360 5.236201 0.419941
v 0.287257 5.236201 0.789232
v -0.287257 5.236201 0.789232
v -0.727360 5.236201 0.419941
v -0.827123 5.236201 -0.145844
v -0.539866 5.236201 -0.643387
v 0.785393 5.236201 -0.935995
v 0.000000 5.236201 -1.221854
v 1.203292 5.236201 -0.212173
v 1.058157 5.236201 0.610927
v 0.417899 5.236201 1.148168
v -0.417899 5.236201 1.148167
v -1.058157 5.236201 0.610927
v -1.203292 5.236201 -0.212173
v -0.785393 5.236201 -0.935995
v 0.472953 6.005603 -0.563643
v 0.000000 6.005603 -0.735784
v 0.724606 6.005603 -0.127768
v 0.637208 6.005603 0.367892
v 0.251653 6.005603 0.691411
v -0.251653 6.005603 0.691411
v -0.637208 6.005603 0.367892
v -0.724606 6.005603 -0.127768
v -0.472953 6.005603 -0.563643
v 0.808241 6.005603 -0.963225
v -0.000000 6.005603 -1.257400
v 1.238298 6.005603 -0.218345
v 1.088941 6.005603 0.628700
v 0.430056 6.005603 1.181570
v -0.430057 6.005603 1.181570
v -1.088941 6.005603 0.628700
v -1.238297 6.005603 -0.218345
v -0.808242 6.005603 -0.963224
v 0.403714 6.782579 -0.481128
v -0.000000 6.782579 -0.628068
v 0.618526 6.782579 -0.109063
v 0.543923 6.782579 0.314034
v 0.214812 6.782579 0.590190
v -0.214812 6.782579 0.590190
v -0.543922 6.782579 0.314034
v -0.618526 6.782579 -0.109063
v -0.403714 6.782579 -0.481128
v 0.669833 6.782579 -0.798276
v -0.000000 6.782579 -1.042076
v 1.026245 6.782579 -0.180954
v 0.902464 6.782579 0.521038
v 0.356411 6.782579 0.979231
v -0.356411 6.782579 0.979231
v -0.902464 6.782579 0.521038
v -1.026244 6.782579 -0.180955
v -0.669834 6.782579 -0.798276
v 0.152071 7.644295 -0.181231
v -0.000000 7.644295 -0.236580
v 0.232986 7.644295 -0.041082
v 0.204884 7.644295 0.118290
v 0.080915 7.644295 0.222313
v -0.080915 7.644295 0.222313
v -0.204884 7.644295 0.118290
v -0.232986 7.644295 -0.041082
v -0.152071 7.644295 -0.181231
v 0.190735 7.644295 -0.227309
v -0.000000 7.644295 -0.296731
v 0.292223 7.644295 -0.051527
v 0.256977 7.644295 0.148366
v 0.101488 7.644295 0.278836
v -0.101488 7.644295 0.278836
v -0.256977 7.644295 0.148365
v -0.292223 7.644295 -0.051527
v -0.190735 7.644295 -0.227309
v 0.006388 7.831840 -0.007614
v -0.000000 7.831840 -0.009939
v 0.009788 7.831840 -0.001726
v 0.008607 7.831840 0.004969
v 0.003399 7.831840 0.009339
v -0.003399 7.831840 0.009339
v -0.008607 7.831840 0.004969
v -0.009788 7.831840 -0.001726
v -0.006389 7.831840 -0.007614
vn 0.3269 0.2939 -0.8982
vn 0.8278 0.2939 -0.4779
vn 0.9413 0.2939 0.1660
vn 0.6144 0.2939 0.7322
vn -0.0000 0.2939 0.9558
vn -0.6144 0.2939 0.7322
vn -0.9413 0.2939 0.1660
vn 0.0000 -1.0000 0.0000
vn -0.8278 0.2939 -0.4779
vn -0.3269 0.2939 -0.8982
vn -0.8736 0.4616 0.1540
vn 0.5702 0.4616 0.6796
vn 0.3034 0.4616 -0.8336
vn -0.7682 0.4616 -0.4435
vn -0.0000 0.4616 0.8871
vn 0.7682 0.4616 -0.4435
vn -0.3034 0.4616 -0.8336
vn -0.5702 0.4616 0.6796
vn 0.8736 0.4616 0.1540
vn -0.0000 0.4469 0.8946
vn 0.7747 0.4469 -0.4473
vn -0.3060 0.4469 -0.8406
vn -0.5750 0.4469 0.6853
vn 0.8810 0.4469 0.1553
vn -0.8810 0.4469 0.1553
vn 0.5750 0.4469 0.6853
vn 0.3060 0.4469 -0.8406
vn -0.7747 0.4469 -0.4473
vn 0.8468 0.5105 0.1493
vn -0.8468 0.5105 0.1493
vn 0.5527 0.5105 0.6587
vn 0.2941 0.5105 -0.8080
vn -0.7447 0.5105 -0.4299
vn -0.0000 0.5105 0.8599
vn 0.7447 0.5105 -0.4299
vn -0.2941 0.5105 -0.8080
vn -0.5527 0.5105 0.6587
vn 0.2722 0.6057 -0.7477
vn -0.6891 0.6057 -0.3979
vn -0.0000 0.6057 0.7957
vn 0.6891 0.6057 -0.3979
vn -0.2722 0.6057 -0.7477
vn -0.5115 0.6057 0.6096
vn 0.7836 0.6057 0.1382
vn -0.7836 0.6057 0.1382
vn 0.5115 0.6057 0.6096
vn -0.2570 0.6599 -0.7060
vn -0.4829 0.6599 0.5755
vn 0.7399 0.6599 0.1305
vn -0.7399 0.6599 0.1305
vn 0.4829 0.6599 0.5755
vn 0.2570 0.6599 -0.7060
vn -0.6507 0.6599 -0.3757
vn 0.0000 0.6599 0.7513
vn 0.6507 0.6599 -0.3757
vn -0.5625 0.8208 0.0992
vn 0.0000 1.0000 0.0000
vn 0.3672 0.8208 0.4376
vn 0.1954 0.8208 -0.5368
vn -0.4947 0.8208 -0.2856
vn 0.0000 0.8208 0.5712
vn 0.4947 0.8208 -0.2856
vn -0.1954 0.8208 -0.5368
vn -0.3672 0.8208 0.4376
vn 0.5625 0.8208 0.0992
usemtl None
s off
f 1//1 2//1 4//1 3//1
f 3//2 4//2 6//2 5//2
f 5//3 6//3 8//3 7//3
f 7//4 8//4 10//4 9//4
f 9//5 10//5 12//5 11//5
f 11//6 12//6 14//6 13//6
f 13//7 14//7 16//7 15//7
f 2//8 18//8 27//8 20//8
f 15//9 16//9 18//9 17//9
f 17//10 18//10 2//10 1//10
f 1//8 3//8 5//8 7//8 9//8 11//8 13//8 15//8 17//8
f 26//11 25//11 34//11 35//11
f 18//8 16//8 26//8 27//8
f 16//8 14//8 25//8 26//8
f 14//8 12//8 24//8 25//8
f 12//8 10//8 23//8 24//8
f 10//8 8//8 22//8 23//8
f 4//8 2//8 20//8 19//8
f 8//8 6//8 21//8 22//8
f 6//8 4//8 19//8 21//8
f 34//8 33//8 42//8 43//8
f 23//12 22//12 31//12 32//12
f 19//13 20//13 29//13 28//13
f 27//14 26//14 35//14 36//14
f 24//15 23//15 32//15 33//15
f 21//16 19//16 28//16 30//16
f 20//17 27//17 36//17 29//17
f 25//18 24//18 33//18 34//18
f 22//19 21//19 30//19 31//19
f 42//20 41//20 50//20 51//20
f 31//8 30//8 39//8 40//8
f 35//8 34//8 43//8 44//8
f 32//8 31//8 40//8 41//8
f 28//8 29//8 38//8 37//8
f 36//8 35//8 44//8 45//8
f 33//8 32//8 41//8 42//8
f 30//8 28//8 37//8 39//8
f 29//8 36//8 45//8 38//8
f 50//8 49//8 58//8 59//8
f 39//21 37//21 46//21 48//21
f 38//22 45//22 54//22 47//22
f 43//23 42//23 51//23 52//23
f 40//24 39//24 48//24 49//24
f 44//25 43//25 52//25 53//25
f 41//26 40//26 49//26 50//26
f 37//27 38//27 47//27 46//27
f 45//28 44//28 53//28 54//28
f 58//29 57//29 66//29 67//29
f 46//8 47//8 56//8 55//8
f 54//8 53//8 62//8 63//8
f 51//8 50//8 59//8 60//8
f 48//8 46//8 55//8 57//8
f 47//8 54//8 63//8 56//8
f 52//8 51//8 60//8 61//8
f 49//8 48//8 57//8 58//8
f 53//8 52//8 61//8 62//8
f 66//8 64//8 73//8 75//8
f 62//30 61//30 70//30 71//30
f 59//31 58//31 67//31 68//31
f 55//32 56//32 65//32 64//32
f 63//33 62//33 71//33 72//33
f 60//34 59//34 68//34 69//34
f 57//35 55//35 64//35 66//35
f 56//36 63//36 72//36 65//36
f 61//37 60//37 69//37 70//37
f 73//38 74//38 83//38 82//38
f 65//8 72//8 81//8 74//8
f 70//8 69//8 78//8 79//8
f 67//8 66//8 75//8 76//8
f 71//8 70//8 79//8 80//8
f 68//8 67//8 76//8 77//8
f 64//8 65//8 74//8 73//8
f 72//8 71//8 80//8 81//8
f 69//8 68//8 77//8 78//8
f 89//8 88//8 97//8 98//8
f 81//39 80//39 89//39 90//39
f 78//40 77//40 86//40 87//40
f 75//41 73//41 82//41 84//41
f 74//42 81//42 90//42 83//42
f 79//43 78//43 87//43 88//43
f 76//44 75//44 84//44 85//44
f 80//45 79//45 88//45 89//45
f 77//46 76//46 85//46 86//46
f 92//47 99//47 108//47 101//47
f 86//8 85//8 94//8 95//8
f 82//8 83//8 92//8 91//8
f 90//8 89//8 98//8 99//8
f 87//8 86//8 95//8 96//8
f 84//8 82//8 91//8 93//8
f 83//8 90//8 99//8 92//8
f 88//8 87//8 96//8 97//8
f 85//8 84//8 93//8 94//8
f 108//8 107//8 116//8 117//8
f 97//48 96//48 105//48 106//48
f 94//49 93//49 102//49 103//49
f 98//50 97//50 106//50 107//50
f 95//51 94//51 103//51 104//51
f 91//52 92//52 101//52 100//52
f 99//53 98//53 107//53 108//53
f 96//54 95//54 104//54 105//54
f 93//55 91//55 100//55 102//55
f 116//56 115//56 124//56 125//56
f 105//8 104//8 113//8 114//8
f 102//8 100//8 109//8 111//8
f 101//8 108//8 117//8 110//8
f 106//8 105//8 114//8 115//8
f 103//8 102//8 111//8 112//8
f 107//8 106//8 115//8 116//8
f 104//8 103//8 112//8 113//8
f 100//8 101//8 110//8 109//8
f 118//57 119//57 126//57 125//57 124//57 123//57 122//57 121//57 120//57
f 113//58 112//58 121//58 122//58
f 109//59 110//59 119//59 118//59
f 117//60 116//60 125//60 126//60
f 114//61 113//61 122//61 123//61
f 111//62 109//62 118//62 120//62
f 110//63 117//63 126//63 119//63
f 115//64 114//64 123//64 124//64
f 112//65 111//65 120//65 121//65
o Cube
v 0.155024 -0.155024 -0.155024
v 0.155024 -0.155024 0.155024
v -0.155024 -0.155024 0.155024
v -0.155024 -0.155024 -0.155024
v 0.155024 0.155024 -0.155024
v 0.155024 0.155024 0.155024
v -0.155024 0.155024 0.155024
v -0.155024 0.155024 -0.155024
v 0.130010 3.014971 -0.123504
v 0.122037 3.017914 0.131846
v -0.122037 3.055945 -0.131846
v -0.130010 3.058888 0.123504
v 0.348634 4.545911 -0.115801
v 0.352447 4.548157 0.092561
v 0.140390 4.553336 -0.112071
v 0.144203 4.555582 0.096292
v 0.378932 6.401094 -0.108392
v 0.388628 6.402691 0.036966
v 0.234795 6.382289 -0.098571
v 0.244491 6.383886 0.046787
v 0.183581 7.660198 -0.073757
v 0.186222 7.660970 0.003728
v 0.106106 7.658780 -0.071101
v 0.108747 7.659552 0.006383
vn 0.0000 -1.0000 0.0000
vn -0.0141 0.0095 0.9999
vn 1.0000 0.0000 0.0000
vn -0.0000 -0.0000 1.0000
vn -1.0000 -0.0000 -0.0000
vn 0.0000 0.0000 -1.0000
vn -0.9843 0.1764 -0.0108
vn 0.9999 0.0101 0.0140
vn -0.9999 0.0100 -0.0142
vn 0.0155 0.0095 -0.9998
vn -0.0387 0.0070 -0.9992
vn 0.0108 0.0074 -0.9999
vn -0.0076 0.0232 0.9997
vn 0.9894 -0.1450 0.0105
vn 0.0529 0.0361 0.9979
vn 0.0375 0.0271 0.9989
vn 0.9991 -0.0184 -0.0380
vn -0.9979 0.0535 0.0375
vn -0.0186 0.9998 -0.0093
vn 0.9862 0.1559 -0.0563
vn -0.9931 -0.1026 0.0561
vn -0.0578 0.0171 -0.9982
usemtl Material
s off
f 127//66 128//66 129//66 130//66
f 133//67 132//67 136//67 138//67
f 127//68 131//68 132//68 128//68
f 128//69 132//69 133//69 129//69
f 129//70 133//70 134//70 130//70
f 131//71 127//71 130//71 134//71
f 137//72 138//72 142//72 141//72
f 132//73 131//73 135//73 136//73
f 134//74 133//74 138//74 137//74
f 131//75 134//75 137//75 135//75
f 139//76 141//76 145//76 143//76
f 135//77 137//77 141//77 139//77
f 138//78 136//78 140//78 142//78
f 136//79 135//79 139//79 140//79
f 146//80 144//80 148//80 150//80
f 142//81 140//81 144//81 146//81
f 140//82 139//82 143//82 144//82
f 141//83 142//83 146//83 145//83
f 147//84 149//84 150//84 148//84
f 144//85 143//85 147//85 148//85
f 145//86 146//86 150//86 149//86
f 143//87 145//87 149//87 147//87
